<?xml version="1.0" encoding="UTF-8"?>
<svg width="169px" height="29px" viewBox="0 0 169 29" version="1.1" xmlns="http://www.w3.org/2000/svg" xmlns:xlink="http://www.w3.org/1999/xlink">
    <!-- Generator: Sketch 43.2 (39069) - http://www.bohemiancoding.com/sketch -->
    <title>Group 22</title>
    <desc>Created with Sketch.</desc>
    <defs></defs>
    <g id="Page-1" stroke="none" stroke-width="1" fill="none" fill-rule="evenodd">
        <g id="Desktop-Copy-2" transform="translate(-59.000000, -23.000000)">
            <g id="Header-Bar">
                <g id="Group-22" transform="translate(57.000000, 21.000000)">
                    <text id="Datasaurus" font-family="Ubuntu-Bold, Ubuntu" font-size="25.6000004" font-weight="bold" letter-spacing="-0.4" fill="#212121">
                        <tspan x="35" y="25">D</tspan>
                        <tspan x="53.4672003" y="25" letter-spacing="-0.5">a</tspan>
                        <tspan x="67.1240005" y="25" letter-spacing="0.4">t</tspan>
                        <tspan x="78.3784007" y="25">as</tspan>
                        <tspan x="104.951201" y="25" letter-spacing="-0.7">a</tspan>
                        <tspan x="118.408001" y="25" letter-spacing="0.4">u</tspan>
                        <tspan x="133.886401" y="25">rus</tspan>
                    </text>
                    <g id="Logo-Mark" fill="#4990E2">
                        <path d="M30.5836309,6.96629217 L30.3515515,6.79921825 C30.0869223,6.60676069 29.7187427,6.65696701 29.5158254,6.9142744 L28.751225,7.88806781 L26.630008,7.76255201 L23.371827,4.27948856 C23.2891958,4.1916275 23.1825074,4.12991557 23.0664053,4.10376644 L19.7119955,3.30674111 L19.6001306,2.41636906 L30.5836309,2.41636906 L30.5836309,6.96629217 Z M30.5836309,12.8141846 L30.5836309,30.5836309 L14.7708967,30.5836309 L19.4055278,25.5418651 C19.4086657,25.5387272 19.4107576,25.5355893 19.4149414,25.5324514 C19.4222632,25.5219917 20.2757706,24.5513362 21.5330206,23.5911403 C21.8907406,23.3170975 22.2505526,23.0681578 22.6009508,22.8505971 C23.0057393,22.6016575 23.6165829,22.2219722 24.3236552,21.6801623 C27.092873,19.5631098 29.1881101,16.5921247 30.5836309,12.8141846 Z M9.14730126,30.5836309 L2.41636906,30.5836309 L2.41636906,25.3396358 L2.9472685,26.8273561 C3.00375061,26.9842508 3.12194466,27.1129045 3.27674748,27.1808922 C3.42945837,27.246788 3.60413452,27.2488799 3.75789137,27.1850761 C4.05389947,27.0606062 4.33526405,26.9350904 4.60721495,26.8064368 C5.04442832,27.2614315 5.92826875,28.1191228 6.61337582,28.4004874 C6.61337582,28.4004874 7.20643798,28.6902197 6.9637741,27.9465386 C6.76294882,27.3325571 6.45648107,26.4560385 6.39686107,25.8483328 C6.62069758,25.7134033 6.84348812,25.5701061 7.06418674,25.423671 C7.53277906,25.8943553 8.31097702,26.620255 8.92914233,26.8723325 C8.92914233,26.8723325 9.52115852,27.1631108 9.27849464,26.4204757 C9.06616375,25.7688395 8.73145495,24.8211952 8.70216793,24.2124436 C9.11323217,23.8850565 9.536848,23.5304744 9.98975084,23.1413754 C10.4552053,23.5900944 11.0859222,24.1287664 11.6015829,24.3431892 C11.6015829,24.3431892 12.1946451,24.6308296 11.9519812,23.8871484 C11.7647534,23.3160515 11.4854808,22.5148424 11.4007576,21.9165504 C11.4310906,21.8904013 11.4593317,21.8642521 11.4896646,21.8412409 C12.2741384,21.1561338 13.1653006,20.3779359 14.2133575,19.4846818 C14.5156414,19.2273744 14.8179253,18.9836645 15.1139334,18.7577361 C17.1169563,17.2253974 18.6587088,16.6469787 19.7182713,16.457659 C17.9464066,17.9282858 16.3188851,20.3800278 14.9026484,22.7428627 C14.3242298,22.6068873 13.5993761,22.3046034 13.0722097,22.0975023 C12.345264,21.8109079 12.5994335,22.4217515 12.5994335,22.4217515 C12.8169942,23.0556063 13.4979174,23.8819186 13.9414066,24.3745681 C13.8671431,24.5032218 13.7949715,24.6287376 13.7227999,24.7532075 C13.4539869,25.2134321 13.183082,25.6485535 12.9100851,26.0575258 C12.3316665,25.9225963 11.6047208,25.6192665 11.0765085,25.4111194 C10.3485168,25.124525 10.6026863,25.7353686 10.6026863,25.7353686 C10.8024656,26.3169251 11.390298,27.0595603 11.8296033,27.5595316 C11.6235482,27.8252067 11.4216769,28.0699625 11.2302653,28.2990288 C10.6487088,28.1682832 9.90921154,27.8597235 9.37472342,27.6473926 C8.64777775,27.3618442 8.90090128,27.9716418 8.90090128,27.9716418 C9.08185322,28.4998541 9.58496239,29.160904 10.0033484,29.6493696 C9.58705432,30.0708935 9.32556307,30.296822 9.31510342,30.3072816 C9.23368211,30.3845155 9.17688884,30.4803757 9.14730126,30.5836309 Z M2.41636906,20.2469122 L2.41636906,2.41636906 L16.7097125,2.41636906 L13.6976968,6.59002525 L13.6108817,6.30970663 C13.5345262,6.05762906 13.302322,5.88399887 13.0366469,5.88190694 L11.3327699,5.85994168 C11.1152092,5.85784975 10.9143839,5.969768 10.8024656,6.15594977 L2.41636906,20.2469122 Z M6.2315986,20.8036436 C5.79124733,21.8642521 3.95557876,24.7113689 3.64492715,23.3704417 C3.33427555,22.0336985 3.99741736,20.7649429 3.99741736,20.7649429 C5.64690416,18.2378915 6.67194986,19.7440811 6.2315986,20.8036436 Z M17.427608,13.5153595 C17.0949911,15.2955919 13.8849245,15.951412 12.5094805,17.2735117 C11.3338159,18.4041999 9.82239644,20.4218664 9.08603708,19.0307329 C8.34758579,17.6375076 10.1518754,14.188961 10.1518754,14.188961 C13.9434985,7.66213937 17.7581329,11.7340811 17.427608,13.5153595 Z M22.776673,11.139973 C22.9283379,13.2465465 21.6240195,13.3072125 20.9430963,11.8010229 C20.2621731,10.2937873 18.472527,10.0427557 17.8794648,9.0836058 C17.2864027,8.1244559 18.4285965,7.72803516 18.4285965,7.72803516 C20.5895601,6.71135719 22.626054,9.03339948 22.776673,11.139973 Z" id="Combined-Shape"></path>
                    </g>
                </g>
            </g>
        </g>
    </g>
</svg>