<?xml version="1.0" encoding="UTF-8"?>
<svg width="84px" height="99px" viewBox="0 0 84 99" version="1.1" xmlns="http://www.w3.org/2000/svg" xmlns:xlink="http://www.w3.org/1999/xlink">
    <!-- Generator: Sketch 41.2 (35397) - http://www.bohemiancoding.com/sketch -->
    <title>Shape</title>
    <desc>Created with Sketch.</desc>
    <defs></defs>
    <g id="Page-1" stroke="none" stroke-width="1" fill="none" fill-rule="evenodd">
        <g id="noun_798449_cc" transform="translate(0.000000, -1.000000)" fill="#007A9C">
            <path d="M48.33,1.09 C37.8252459,0.312913862 27.4760405,3.9766704 19.8,11.19 C12.1442023,18.3726248 7.80077711,28.4023176 7.8,38.9 C7.80127916,40.678322 7.4264087,42.4368053 6.7,44.06 L1,56.69 C0.219048919,58.4437776 0.215815464,60.4459522 0.991097885,62.2022431 C1.76638031,63.958534 3.24793221,65.3052774 5.07,65.91 L7.72,66.79 L7.72,77 C7.72,79.6521649 8.7735684,82.195704 10.6489322,84.0710678 C12.524296,85.9464316 15.0678351,87 17.72,87 L28,87 L29.94,93.81 C30.4610009,95.6726153 31.7056054,97.2493361 33.3963209,98.1886225 C35.0870363,99.1279088 37.0832884,99.3516639 38.94,98.81 L74.17,88.65 C76.0310866,88.1266287 77.6060586,86.8816223 78.5449411,85.1916339 C79.4838235,83.5016456 79.7088437,81.5066659 79.17,79.65 L74.52,63.46 C83.792654,52.5766113 86.1492395,37.4002775 80.6135941,24.2174518 C75.0779487,11.0346262 62.5928624,2.09050952 48.33,1.09 L48.33,1.09 Z M67.47,59.81 L65.94,61.4 L71.64,81.4 L37.21,91.21 L33.8,79.21 L17.72,79.21 C16.4876286,79.2105809 15.4778358,78.2317906 15.44,77 L15.44,65.21 C15.4339069,62.8403736 13.910783,60.7410414 11.66,60 L8.45,58.94 L13.67,47.2 C14.8350984,44.5918273 15.4349117,41.7665705 15.43,38.91 C15.4281739,30.5205166 18.9139509,22.5078267 25.0529891,16.7898161 C31.1920273,11.0718056 39.4317755,8.16313052 47.8,8.76 C62.7499073,9.84494395 74.6562173,21.7044792 75.8,36.65 C76.4715588,45.2071465 73.43815,53.6409699 67.47,59.81 Z M58.33,22.73 L33.26,22.73 C29.9099147,22.7355055 27.1955055,25.4499147 27.19,28.8 L27.19,47.69 C27.1955055,51.0400853 29.9099147,53.7544945 33.26,53.76 L40.94,53.76 L40.94,57.66 C40.9383092,58.622631 41.516667,59.4914912 42.4053803,59.8614236 C43.2940937,60.231356 44.3181409,60.0295068 45,59.35 L50.59,53.76 L58.33,53.76 C61.6800853,53.7544945 64.3944945,51.0400853 64.4,47.69 L64.4,28.8 C64.3944945,25.4499147 61.6800853,22.7355055 58.33,22.73 L58.33,22.73 Z M37.15,41.24 C35.9366133,41.24 34.8427044,40.5090735 34.3783614,39.3880503 C33.9140184,38.2670271 34.1706857,36.9766736 35.0286797,36.1186797 C35.8866736,35.2606857 37.1770271,35.0040184 38.2980503,35.4683614 C39.4190735,35.9327044 40.15,37.0266133 40.15,38.24 C40.15,39.8968542 38.8068542,41.24 37.15,41.24 L37.15,41.24 Z M45.79,41.24 C44.1331458,41.24 42.79,39.8968542 42.79,38.24 C42.79,36.5831458 44.1331458,35.24 45.79,35.24 C47.4468542,35.24 48.79,36.5831458 48.79,38.24 C48.7900092,39.8929569 47.4529477,41.2344901 45.8,41.24 L45.79,41.24 Z M54.43,41.24 C52.7731458,41.24 51.43,39.8968542 51.43,38.24 C51.43,36.5831458 52.7731458,35.24 54.43,35.24 C56.0868542,35.24 57.43,36.5831458 57.43,38.24 C57.4300092,39.8929569 56.0929477,41.2344901 54.44,41.24 L54.43,41.24 Z" id="Shape"></path>
        </g>
    </g>
</svg>