<?xml version="1.0" standalone="no"?>
<!DOCTYPE svg PUBLIC "-//W3C//DTD SVG 20010904//EN"
 "http://www.w3.org/TR/2001/REC-SVG-20010904/DTD/svg10.dtd">
<svg version="1.0" xmlns="http://www.w3.org/2000/svg"
 width="16.000000pt" height="16.000000pt" viewBox="0 0 16.000000 16.000000"
 preserveAspectRatio="xMidYMid meet">
<metadata>
Created by potrace 1.11, written by Peter Selinger 2001-2013
</metadata>
<g transform="translate(0.000000,16.000000) scale(0.002020,-0.002020)"
fill="#000000" stroke="none">
<path d="M4028 7915 c-2 -2 -34 -6 -73 -9 -38 -3 -81 -8 -95 -10 -14 -2 -47
-8 -75 -12 -27 -4 -52 -8 -55 -9 -3 0 -27 -5 -55 -10 -27 -5 -52 -9 -55 -10
-3 0 -23 -5 -45 -10 -46 -9 -49 -10 -92 -23 -17 -6 -34 -8 -37 -4 -3 3 -6 1
-6 -4 0 -5 -9 -10 -21 -11 -11 -1 -51 -12 -87 -25 -37 -12 -69 -23 -72 -23
-14 -2 -163 -62 -212 -86 -32 -15 -58 -25 -58 -23 0 6 -229 -114 -261 -137
-15 -10 -32 -19 -37 -19 -6 0 -17 -6 -24 -12 -7 -7 -64 -47 -126 -88 -61 -41
-112 -78 -112 -82 0 -4 -6 -8 -14 -8 -8 0 -16 -3 -18 -7 -1 -5 -43 -42 -93
-83 -132 -109 -320 -304 -434 -451 -56 -71 -101 -132 -101 -137 0 -5 -9 -18
-21 -31 -46 -49 -268 -451 -257 -464 2 -2 -2 -10 -8 -18 -29 -35 -152 -392
-171 -494 -3 -16 -9 -37 -14 -46 -4 -9 -6 -19 -3 -21 2 -3 0 -16 -5 -30 -5
-14 -12 -49 -16 -79 -4 -30 -8 -56 -10 -59 -2 -3 -6 -30 -10 -60 -3 -30 -8
-67 -10 -81 -8 -44 -15 -154 -20 -314 -3 -82 -8 -157 -10 -166 -3 -9 -7 -34
-10 -55 -2 -22 -8 -52 -14 -67 -6 -15 -9 -27 -6 -27 2 0 -4 -20 -15 -45 -11
-25 -20 -47 -20 -50 -1 -8 -31 -79 -52 -125 -12 -25 -32 -70 -45 -100 -14 -30
-33 -73 -44 -95 -38 -82 -151 -330 -153 -340 -2 -5 -18 -41 -35 -80 -64 -137
-154 -340 -163 -370 -35 -111 -27 -271 19 -375 28 -64 96 -154 147 -199 43
-37 171 -107 210 -115 30 -7 72 -19 81 -25 6 -3 12 -6 15 -6 3 -1 23 -7 46
-14 l41 -13 1 -437 c1 -535 6 -581 90 -747 56 -112 159 -228 258 -292 27 -17
54 -35 60 -40 17 -15 166 -71 216 -82 25 -5 77 -12 114 -15 37 -3 71 -8 76
-11 4 -3 8 -2 8 3 0 9 77 9 86 0 3 -3 16 -2 29 3 13 5 25 6 29 3 8 -8 106 -9
106 -1 0 4 13 3 29 -2 16 -4 32 -6 35 -3 7 7 105 7 112 0 3 -3 17 -2 30 3 14
6 26 6 29 0 3 -5 15 -6 28 -1 12 5 31 5 42 1 11 -4 27 -4 36 1 9 5 19 6 22 2
4 -3 29 -5 57 -4 113 3 134 0 138 -24 2 -11 6 -27 9 -35 3 -8 8 -24 10 -35 2
-11 7 -31 13 -45 5 -14 18 -61 30 -105 12 -44 24 -87 27 -95 3 -8 7 -22 9 -30
9 -50 75 -252 93 -285 62 -116 171 -216 285 -264 88 -36 129 -44 231 -44 102
-1 84 -5 475 109 47 14 90 26 95 28 6 1 30 8 55 15 25 7 45 12 45 11 0 -1 14
4 30 10 17 7 37 13 45 15 24 5 273 76 290 82 8 3 24 8 35 10 28 6 38 9 55 16
18 7 105 30 105 27 0 -1 14 4 30 10 17 7 91 29 165 50 74 21 167 48 205 60 39
11 77 22 85 24 14 4 147 42 305 88 39 11 77 21 85 23 8 2 15 4 15 5 0 1 7 3
15 5 45 12 99 27 225 64 77 22 190 55 250 72 61 17 117 33 125 36 8 3 20 7 25
9 71 17 229 65 244 74 12 6 21 8 21 5 0 -7 84 36 125 64 110 75 212 229 239
361 23 116 13 193 -59 446 -36 126 -68 236 -70 244 -2 8 -25 87 -50 175 -26
88 -48 165 -49 170 -7 29 -29 104 -37 130 -5 17 -21 71 -35 120 -14 50 -30
102 -34 118 -5 15 -7 27 -6 27 2 0 -7 30 -19 67 -25 72 -23 85 17 127 17 18
78 98 155 203 13 17 23 36 23 41 0 6 4 12 8 14 32 13 275 482 294 568 2 8 5
17 8 20 7 6 79 230 92 285 5 22 12 47 15 55 3 8 7 22 8 30 1 8 7 40 14 70 24
117 31 155 37 210 3 25 7 56 9 70 23 132 23 573 0 700 -2 14 -7 46 -9 71 -12
113 -79 401 -126 534 -11 33 -22 68 -25 77 -2 10 -10 32 -18 50 -8 18 -27 62
-42 98 -119 279 -262 514 -465 764 -23 27 -118 131 -180 195 -54 55 -196 182
-259 231 -17 14 -37 30 -44 35 -65 52 -113 86 -247 171 -57 36 -66 41 -175 99
-49 26 -96 52 -102 57 -7 6 -13 7 -13 3 0 -4 -6 -3 -12 3 -19 15 -243 107
-313 128 -33 10 -63 23 -67 29 -4 5 -8 7 -8 3 0 -4 -15 -2 -32 3 -86 26 -221
60 -298 73 -47 9 -96 18 -109 20 -13 3 -46 8 -75 11 -28 4 -71 9 -96 12 -49 6
-517 13 -522 8z m434 -619 c49 -4 98 -9 110 -12 13 -2 39 -7 58 -9 19 -3 46
-8 60 -11 13 -3 38 -7 55 -9 16 -3 77 -18 135 -35 58 -17 112 -32 120 -34 87
-24 264 -99 375 -159 134 -73 150 -82 155 -87 3 -3 32 -23 65 -45 164 -106
352 -271 477 -419 18 -22 44 -51 57 -65 13 -14 37 -46 54 -71 17 -25 37 -51
44 -58 8 -8 21 -28 30 -45 9 -18 19 -34 23 -37 14 -9 100 -161 100 -176 0 -8
4 -14 8 -14 8 0 28 -41 88 -175 44 -100 107 -289 129 -390 15 -67 34 -169 41
-220 3 -22 8 -53 11 -70 7 -41 12 -488 5 -499 -3 -5 -6 -23 -8 -40 -2 -29 -9
-84 -20 -151 -16 -103 -72 -306 -120 -435 -49 -132 -196 -422 -224 -440 -4 -3
-10 -15 -14 -27 -4 -13 -12 -23 -17 -23 -5 0 -9 -4 -9 -10 0 -8 -84 -126 -100
-140 -3 -3 -24 -27 -45 -54 -22 -27 -83 -94 -135 -149 -52 -55 -93 -105 -91
-111 2 -6 12 -40 21 -76 10 -36 32 -114 50 -175 17 -60 41 -141 51 -180 11
-38 25 -86 30 -105 41 -143 70 -246 74 -260 2 -8 4 -16 5 -17 3 -3 3 -6 14
-48 5 -16 19 -68 33 -115 13 -47 26 -92 28 -100 2 -8 20 -71 40 -140 20 -69
38 -132 40 -140 2 -8 17 -62 34 -120 16 -58 27 -108 23 -112 -4 -4 -25 -11
-47 -16 -22 -6 -87 -24 -145 -41 -58 -17 -112 -33 -120 -35 -8 -2 -35 -10 -60
-17 -25 -7 -49 -13 -55 -15 -5 -1 -113 -32 -240 -69 -126 -36 -237 -68 -245
-70 -8 -2 -159 -44 -335 -95 -176 -51 -327 -93 -335 -95 -8 -2 -15 -4 -15 -5
0 -1 -8 -3 -17 -6 -10 -2 -24 -6 -30 -7 -7 -2 -26 -7 -43 -11 -16 -4 -37 -10
-45 -13 -8 -4 -17 -7 -20 -7 -9 -2 -105 -28 -118 -32 -7 -2 -16 -4 -20 -5 -4
-2 -27 -9 -52 -17 -66 -20 -272 -78 -309 -86 -11 -3 -29 -10 -40 -16 -12 -6
-21 -9 -21 -7 0 3 -37 -6 -82 -20 -46 -13 -90 -26 -98 -28 -8 -2 -40 -11 -70
-20 -30 -9 -65 -18 -77 -21 -12 -2 -34 -9 -48 -14 -49 -19 -60 -13 -74 38 -7
26 -24 88 -38 137 -14 50 -28 97 -31 105 -3 8 -7 22 -8 30 -2 8 -40 141 -84
295 -45 154 -83 291 -86 305 -3 13 -7 27 -10 29 -2 3 -305 6 -672 7 -367 2
-673 4 -679 5 -7 1 -13 6 -13 11 0 4 -4 8 -10 8 -18 0 -51 34 -73 75 -20 39
-21 52 -22 565 -2 515 -2 526 -24 589 -42 120 -116 203 -230 258 -40 19 -79
36 -85 37 -17 3 -59 16 -81 26 -11 4 -46 16 -78 25 -62 18 -65 27 -32 80 7 11
16 35 19 53 4 17 12 32 17 32 5 0 9 5 9 10 0 11 196 456 311 708 16 35 29 65
29 68 0 2 9 23 20 47 19 42 66 181 75 221 2 12 7 32 10 46 3 14 8 39 11 55 2
17 6 39 8 50 11 56 17 134 21 265 3 80 7 165 9 190 8 93 17 173 21 179 2 4 6
27 9 51 8 64 69 292 100 375 15 39 28 75 30 80 8 26 23 59 79 175 33 69 63
127 66 130 4 3 12 16 19 30 18 37 53 94 61 100 4 3 18 23 31 45 14 22 30 47
37 55 6 8 40 51 75 95 70 89 268 291 338 345 25 19 47 37 50 40 15 17 159 115
248 169 85 51 263 143 282 146 3 0 10 4 16 8 20 12 232 86 297 103 114 30 205
49 272 59 28 4 61 9 75 11 14 2 66 6 115 10 50 3 91 7 92 8 5 4 222 -2 305 -8z"/>
<path d="M3240 6179 c-232 -16 -400 -160 -456 -390 -10 -39 -10 -1629 -1
-1689 5 -30 13 -59 18 -64 5 -6 9 -20 9 -33 0 -13 3 -23 8 -23 4 0 15 -17 25
-38 52 -108 204 -214 339 -237 21 -3 184 -6 363 -6 179 0 326 -3 326 -7 1 -4
2 -83 3 -177 2 -191 11 -223 73 -274 64 -53 158 -57 223 -11 14 10 127 119
251 243 l226 226 334 0 c394 1 403 2 514 59 49 25 202 169 191 179 -3 3 3 18
14 33 10 15 21 38 24 51 3 13 10 44 17 69 11 46 16 1638 5 1689 -20 89 -46
147 -98 212 -54 69 -81 92 -148 128 -70 37 -140 57 -211 60 -131 5 -1972 5
-2049 0z m438 -1023 c149 -77 175 -282 50 -396 -70 -63 -189 -75 -272 -26
-154 90 -164 285 -21 404 48 41 181 50 243 18z m691 0 c157 -82 178 -304 37
-404 -54 -38 -91 -50 -151 -47 -211 8 -307 259 -155 405 27 26 63 51 82 57 48
15 148 9 187 -11z m661 12 c23 -5 83 -44 102 -67 38 -44 59 -102 59 -159 0
-70 -18 -115 -66 -165 -35 -35 -95 -74 -95 -61 0 4 -6 2 -12 -4 -7 -5 -41 -9
-75 -7 -269 12 -311 382 -53 466 23 8 101 6 140 -3z"/>
</g>
</svg>
