<svg version="1" xmlns="http://www.w3.org/2000/svg" width="773.333" height="773.333" viewBox="0 0 580.000000 580.000000"><path d="M43.9 42.8c-1.2.2-1.4 21-1.4 156.2 0 85.8.1 156 .2 156 .2 0 13.4-21.7 16.8-27.7.6-1 2.8-4.7 4.9-8.3 2.2-3.6 4.4-7.4 5-8.5.6-1.1 11.2-18.9 23.5-39.5 31.9-53.5 44.6-74.8 63.1-106 8.9-15.1 17.3-29.1 18.5-31 1.3-1.9 5.5-9 9.5-15.8 5.1-8.7 8-12.7 10.2-13.8 2.5-1.3 6.1-1.5 20.7-1.2 20 .4 22.1 1.1 24.2 8 .7 2.1 1.5 3.8 1.8 3.8.3 0 3.4-3.9 6.8-8.8 3.5-4.8 9-12.5 12.4-17.2C280.4 60.9 293 43.3 293 42.9c0-.4-246.7-.6-249.1-.1zM345.4 50c.7 7.9.9 8.3 3 8.6.8.1 7.2 1.6 14.2 3.4 7.1 1.7 14 3.4 15.4 3.6 1.4.3 4.3 1 6.5 1.6 2.2.5 5.1 1.2 6.5 1.5 5.3.9 14.5 3.5 17 4.8 1.4.7 7 6.1 12.5 12.1 5.5 5.9 11.3 12.1 12.9 13.8 1.5 1.7 8.1 8.7 14.6 15.6s13.5 14.5 15.7 16.9c4.4 4.9 3.7 4.7 22.7 5.6 7.1.4 14.2.8 15.8 1 2.5.3 3.6-.6 10.3-9 4.1-5.2 8.4-9.9 9.6-10.6 3.3-1.7 8.5-1.3 11.8 1 1.6 1.2 3.1 2.1 3.3 2.1.5 0 .4-79-.2-79.1-.3-.1-43.6-.2-96.4-.3l-95.8-.1.6 7.5zM335.9 132.1c-5 .7-13.9 4.2-18 7.1-11.8 8-6.8 22.7 11.4 33.8 25.9 15.9 32.4 21.7 39.3 35.3 8.6 17.1 21.4 22.4 27.9 11.4 7.6-12.8 3.9-39.1-8-58.3-13.4-21.4-32.8-32.2-52.6-29.3zM249.5 187.2c-32.6 3.8-67.2 42.9-85.4 96.5-6.7 19.7-9 36.7-6.2 46.2 1.8 5.9 6 11 10.2 12.2 8.2 2.5 15.8-2.6 39.9-26.5 17.2-17 24.7-22.7 42-31.6 27.9-14.3 37.2-20.1 45.5-28.5 12.3-12.2 14.1-23.4 6.3-39.2-3.8-7.6-13.8-18.4-20.9-22.5-9.6-5.6-20.5-7.9-31.4-6.6zM536 229.2c-13.3 33.1-25.1 56.2-39.3 77.3-5.8 8.6-14.5 20.4-15.7 21.5-.3.3-2.1 2.5-4 5-13 16.7-37.8 39.9-58.5 54.6-3.8 2.7-13.1 8.9-20.5 13.6-23.8 15.3-43.7 32.8-68.6 60.3-13.8 15.2-18.7 20.5-21.4 23.4-1.4 1.4-7 7.5-12.5 13.6-5.5 6-10.9 11.9-12 13-1.1 1.2-5.8 6.3-10.5 11.5-4.7 5.1-9.5 10.2-10.7 11.3-1.3 1.2-2.3 2.3-2.3 2.6 0 1.1 277 .7 277.1-.4.3-2.1.4-309.5.1-309.5-.1 0-.7 1-1.2 2.2zM337 291.5c-26 7-58.1 25.9-87 50.9-2 1.7-5.7 4.9-8.4 7.1-2.7 2.2-5.6 4.7-6.5 5.6-.9.8-8.3 7.3-16.6 14.4-8.2 7.1-15.7 13.8-16.7 14.8-1.5 1.7-1.5 2.4.8 11 1.4 5.1 3.8 13.3 5.5 18.4 3.2 9.8 3.4 13 .8 14.6-1.3.8-3.1.3-7.5-1.8-5.4-2.7-19.9-13.5-23.6-17.8-1.5-1.7-2-1.8-3.5-.6-3 2.3-12.8 10.4-13.3 11-.3.3-2.2 1.8-4.4 3.4-3.7 2.8-3.8 3-3.2 7.5.3 2.6 2.2 10 4.2 16.6 6.3 21.2 6.7 23.1 6.1 24.7-1.5 4-11.4 0-22.7-9.1-4.5-3.7-5.3-4.4-12.8-11.6l-4-3.9-6 3.9-5.9 3.9 1.8 8.5c1 4.7 3.4 13.4 5.4 19.4 5.7 17.3 3.9 20.9-7.3 14.5-7.2-4-14.7-9.8-24.1-18.7l-7.4-6.9-7.3 3.3c-15.5 7-18.7 5.3-25.4-13.7-2.3-6.8-4.6-12.7-4.9-13.1-.3-.4-.6 19.6-.6 44.5v45.2h117.1l8-8.2 8-8.2-6.7-8.8c-8-10.4-13.2-20.3-12.7-24.1.5-4.1 4.3-3.9 16.1.7 13.8 5.3 23.5 8.4 25 7.8.7-.2 3.3-3.1 5.8-6.3l4.7-5.9-4.5-5.5c-11.6-14.3-18-25.9-17.4-31.6.3-2.9 5.1-2 20 3.5 8.6 3.2 16.8 6.1 18.3 6.5 3.1.7 2.7 1.2 14.4-18.3l6.3-10.4-2.5-3.1c-17.7-21.6-25.2-36.2-19.7-38.3 1-.4 4.9.5 8.8 1.9 3.8 1.4 10.8 4 15.4 5.7 4.5 1.7 9.8 3.5 11.7 4l3.4.9 6.7-11.1c22.1-36.7 45.3-67.8 65.6-88 6.5-6.4 11.7-11.7 11.5-11.6-.2 0-4.1 1.1-8.8 2.4zM89.9 343.9c-2.4 1.6-5.6 4-7 5.3-3.9 3.5-12.7 15.4-14.5 19.6-2.9 6.8-5.6 20.5-5.6 28.3 0 15 3.4 21.9 9.6 19.1 8.7-3.9 27-28.5 36-48.3 8.3-18-3.7-33.6-18.5-24z"/></svg>